<mxfile host="app.diagrams.net" modified="2023-07-25T17:46:33.578Z" agent="Mozilla/5.0 (Windows NT 10.0; Win64; x64) AppleWebKit/537.36 (KHTML, like Gecko) Chrome/115.0.0.0 Safari/537.36" etag="iYBFM3m2EiNSzRuiuXWn" version="21.6.5" type="github">
  <diagram name="Page-1" id="g_CQs1NWIx2WSFLsqrLt">
    <mxGraphModel dx="1666" dy="1099" grid="1" gridSize="10" guides="1" tooltips="1" connect="1" arrows="1" fold="1" page="1" pageScale="1" pageWidth="850" pageHeight="1100" math="0" shadow="0">
      <root>
        <mxCell id="0" />
        <mxCell id="1" parent="0" />
        <mxCell id="DglnRcJ5g5Zxvro3vOS6-1" value="query_that_results_in_feature_matrix" style="text;html=1;strokeColor=none;fillColor=none;align=center;verticalAlign=middle;whiteSpace=wrap;rounded=0;" vertex="1" parent="1">
          <mxGeometry x="317" y="40" width="210" height="40" as="geometry" />
        </mxCell>
        <mxCell id="DglnRcJ5g5Zxvro3vOS6-4" value="" style="edgeStyle=orthogonalEdgeStyle;rounded=0;orthogonalLoop=1;jettySize=auto;html=1;" edge="1" parent="1" source="DglnRcJ5g5Zxvro3vOS6-2" target="DglnRcJ5g5Zxvro3vOS6-1">
          <mxGeometry relative="1" as="geometry" />
        </mxCell>
        <mxCell id="DglnRcJ5g5Zxvro3vOS6-8" value="" style="edgeStyle=orthogonalEdgeStyle;rounded=0;orthogonalLoop=1;jettySize=auto;html=1;" edge="1" parent="1" source="DglnRcJ5g5Zxvro3vOS6-2" target="DglnRcJ5g5Zxvro3vOS6-1">
          <mxGeometry relative="1" as="geometry" />
        </mxCell>
        <mxCell id="DglnRcJ5g5Zxvro3vOS6-2" value="query_that_results_in_table_of_distinct_person_IDs_visit_occurrence_IDs_and_visit_start_dates_for_undersample" style="text;html=1;strokeColor=none;fillColor=none;align=center;verticalAlign=middle;whiteSpace=wrap;rounded=0;" vertex="1" parent="1">
          <mxGeometry x="110" y="120" width="625" height="40" as="geometry" />
        </mxCell>
        <mxCell id="DglnRcJ5g5Zxvro3vOS6-3" value="" style="endArrow=classic;html=1;rounded=0;" edge="1" parent="1">
          <mxGeometry width="50" height="50" relative="1" as="geometry">
            <mxPoint x="421" y="120" as="sourcePoint" />
            <mxPoint x="421" y="80" as="targetPoint" />
          </mxGeometry>
        </mxCell>
        <mxCell id="DglnRcJ5g5Zxvro3vOS6-5" value="" style="endArrow=classic;html=1;rounded=0;" edge="1" parent="1">
          <mxGeometry width="50" height="50" relative="1" as="geometry">
            <mxPoint x="199.5" y="200" as="sourcePoint" />
            <mxPoint x="199.5" y="160" as="targetPoint" />
          </mxGeometry>
        </mxCell>
        <mxCell id="DglnRcJ5g5Zxvro3vOS6-6" value="" style="endArrow=classic;html=1;rounded=0;" edge="1" parent="1">
          <mxGeometry width="50" height="50" relative="1" as="geometry">
            <mxPoint x="640" y="200" as="sourcePoint" />
            <mxPoint x="640" y="160" as="targetPoint" />
          </mxGeometry>
        </mxCell>
        <mxCell id="DglnRcJ5g5Zxvro3vOS6-7" value="visit_occurrence" style="text;html=1;strokeColor=none;fillColor=none;align=center;verticalAlign=middle;whiteSpace=wrap;rounded=0;" vertex="1" parent="1">
          <mxGeometry x="150" y="200" width="100" height="30" as="geometry" />
        </mxCell>
        <mxCell id="DglnRcJ5g5Zxvro3vOS6-9" value="query_that_results_in_table_of_distinct_IDs_of_undersample" style="text;html=1;strokeColor=none;fillColor=none;align=center;verticalAlign=middle;whiteSpace=wrap;rounded=0;" vertex="1" parent="1">
          <mxGeometry x="470" y="200" width="340" height="30" as="geometry" />
        </mxCell>
        <mxCell id="DglnRcJ5g5Zxvro3vOS6-11" value="query_that_results_in_table_of_3790_distinct_random_IDs_of_non_opioid_abusers_in_cohort" style="text;html=1;strokeColor=none;fillColor=none;align=center;verticalAlign=middle;whiteSpace=wrap;rounded=0;" vertex="1" parent="1">
          <mxGeometry x="130" y="280" width="510" height="30" as="geometry" />
        </mxCell>
        <mxCell id="DglnRcJ5g5Zxvro3vOS6-14" value="" style="endArrow=classic;html=1;rounded=0;" edge="1" parent="1">
          <mxGeometry width="50" height="50" relative="1" as="geometry">
            <mxPoint x="560" y="280" as="sourcePoint" />
            <mxPoint x="560" y="240" as="targetPoint" />
          </mxGeometry>
        </mxCell>
        <mxCell id="DglnRcJ5g5Zxvro3vOS6-15" value="" style="endArrow=classic;html=1;rounded=0;" edge="1" parent="1">
          <mxGeometry width="50" height="50" relative="1" as="geometry">
            <mxPoint x="720" y="280" as="sourcePoint" />
            <mxPoint x="720" y="240" as="targetPoint" />
          </mxGeometry>
        </mxCell>
        <mxCell id="DglnRcJ5g5Zxvro3vOS6-16" value="query_that_results_in_table_of_distinct_IDs_of_opioid_abusers_in_cohort" style="text;html=1;strokeColor=none;fillColor=none;align=center;verticalAlign=middle;whiteSpace=wrap;rounded=0;" vertex="1" parent="1">
          <mxGeometry x="680" y="280" width="400" height="30" as="geometry" />
        </mxCell>
        <mxCell id="DglnRcJ5g5Zxvro3vOS6-17" value="" style="endArrow=classic;html=1;rounded=0;" edge="1" parent="1">
          <mxGeometry width="50" height="50" relative="1" as="geometry">
            <mxPoint x="560" y="360" as="sourcePoint" />
            <mxPoint x="560" y="320" as="targetPoint" />
          </mxGeometry>
        </mxCell>
        <mxCell id="DglnRcJ5g5Zxvro3vOS6-18" value="" style="endArrow=classic;html=1;rounded=0;" edge="1" parent="1">
          <mxGeometry width="50" height="50" relative="1" as="geometry">
            <mxPoint x="199.5" y="360" as="sourcePoint" />
            <mxPoint x="199.5" y="320" as="targetPoint" />
          </mxGeometry>
        </mxCell>
        <mxCell id="DglnRcJ5g5Zxvro3vOS6-19" value="query_that_results_in_table_of_distinct_person_IDs_for_cohort" style="text;html=1;strokeColor=none;fillColor=none;align=center;verticalAlign=middle;whiteSpace=wrap;rounded=0;" vertex="1" parent="1">
          <mxGeometry x="-30" y="360" width="350" height="30" as="geometry" />
        </mxCell>
        <mxCell id="DglnRcJ5g5Zxvro3vOS6-20" value="query_that_results_in_table_of_distinct_IDs_of_opioid_abusers_in_cohort" style="text;html=1;strokeColor=none;fillColor=none;align=center;verticalAlign=middle;whiteSpace=wrap;rounded=0;" vertex="1" parent="1">
          <mxGeometry x="400" y="360" width="400" height="30" as="geometry" />
        </mxCell>
        <mxCell id="DglnRcJ5g5Zxvro3vOS6-22" value="" style="endArrow=classic;html=1;rounded=0;" edge="1" parent="1">
          <mxGeometry width="50" height="50" relative="1" as="geometry">
            <mxPoint x="720" y="440" as="sourcePoint" />
            <mxPoint x="560" y="400" as="targetPoint" />
          </mxGeometry>
        </mxCell>
        <mxCell id="DglnRcJ5g5Zxvro3vOS6-23" value="" style="endArrow=classic;html=1;rounded=0;" edge="1" parent="1">
          <mxGeometry width="50" height="50" relative="1" as="geometry">
            <mxPoint x="720" y="440" as="sourcePoint" />
            <mxPoint x="880" y="320" as="targetPoint" />
          </mxGeometry>
        </mxCell>
        <mxCell id="DglnRcJ5g5Zxvro3vOS6-24" value="query_that_results_in_table_of_person_IDs_codes_standard_concept_names_and_visit_occurrence_IDs&lt;br&gt;_from_table_of_condition_occurrences_relating_to_cohort_table_concept_and_table_of_concept_IDs_and_codes" style="text;html=1;strokeColor=none;fillColor=none;align=center;verticalAlign=middle;whiteSpace=wrap;rounded=0;" vertex="1" parent="1">
          <mxGeometry x="130" y="440" width="1180" height="40" as="geometry" />
        </mxCell>
        <mxCell id="DglnRcJ5g5Zxvro3vOS6-28" value="" style="endArrow=classic;html=1;rounded=0;" edge="1" parent="1">
          <mxGeometry width="50" height="50" relative="1" as="geometry">
            <mxPoint x="480" y="520" as="sourcePoint" />
            <mxPoint x="480" y="480" as="targetPoint" />
          </mxGeometry>
        </mxCell>
        <mxCell id="DglnRcJ5g5Zxvro3vOS6-29" value="query_that_results_in_table_of_condition_occurrences_relating_to_cohort" style="text;html=1;strokeColor=none;fillColor=none;align=center;verticalAlign=middle;whiteSpace=wrap;rounded=0;" vertex="1" parent="1">
          <mxGeometry x="280" y="520" width="400" height="30" as="geometry" />
        </mxCell>
        <mxCell id="DglnRcJ5g5Zxvro3vOS6-30" value="" style="endArrow=classic;html=1;rounded=0;" edge="1" parent="1">
          <mxGeometry width="50" height="50" relative="1" as="geometry">
            <mxPoint x="960" y="520" as="sourcePoint" />
            <mxPoint x="960" y="480" as="targetPoint" />
          </mxGeometry>
        </mxCell>
        <mxCell id="DglnRcJ5g5Zxvro3vOS6-31" value="" style="endArrow=classic;html=1;rounded=0;" edge="1" parent="1">
          <mxGeometry width="50" height="50" relative="1" as="geometry">
            <mxPoint x="719.5" y="520" as="sourcePoint" />
            <mxPoint x="719.5" y="480" as="targetPoint" />
          </mxGeometry>
        </mxCell>
        <mxCell id="DglnRcJ5g5Zxvro3vOS6-32" value="concept" style="text;html=1;strokeColor=none;fillColor=none;align=center;verticalAlign=middle;whiteSpace=wrap;rounded=0;" vertex="1" parent="1">
          <mxGeometry x="690" y="520" width="60" height="30" as="geometry" />
        </mxCell>
        <mxCell id="DglnRcJ5g5Zxvro3vOS6-33" value="query_that_results_in_table_of_concept_IDs_and_codes" style="text;html=1;strokeColor=none;fillColor=none;align=center;verticalAlign=middle;whiteSpace=wrap;rounded=0;" vertex="1" parent="1">
          <mxGeometry x="800" y="520" width="320" height="30" as="geometry" />
        </mxCell>
        <mxCell id="DglnRcJ5g5Zxvro3vOS6-35" value="" style="endArrow=classic;html=1;rounded=0;" edge="1" parent="1">
          <mxGeometry width="50" height="50" relative="1" as="geometry">
            <mxPoint x="240" y="440" as="sourcePoint" />
            <mxPoint x="240" y="400" as="targetPoint" />
          </mxGeometry>
        </mxCell>
        <mxCell id="DglnRcJ5g5Zxvro3vOS6-36" value="cb_search_person" style="text;html=1;strokeColor=none;fillColor=none;align=center;verticalAlign=middle;whiteSpace=wrap;rounded=0;" vertex="1" parent="1">
          <mxGeometry x="210" y="440" width="60" height="30" as="geometry" />
        </mxCell>
        <mxCell id="DglnRcJ5g5Zxvro3vOS6-37" value="" style="endArrow=classic;html=1;rounded=0;" edge="1" parent="1">
          <mxGeometry width="50" height="50" relative="1" as="geometry">
            <mxPoint x="120" y="440" as="sourcePoint" />
            <mxPoint x="120" y="400" as="targetPoint" />
          </mxGeometry>
        </mxCell>
        <mxCell id="DglnRcJ5g5Zxvro3vOS6-38" value="query_that_results_in_table_of_person_IDs&lt;br&gt;_from_table_of_distinct_combinations_of_person_ID_entry_date_and_concept_ID&lt;br&gt;_from_table_of_events_where_concept_IDs_correspond_to_cancer" style="text;html=1;strokeColor=none;fillColor=none;align=center;verticalAlign=middle;whiteSpace=wrap;rounded=0;" vertex="1" parent="1">
          <mxGeometry x="-290" y="440" width="450" height="50" as="geometry" />
        </mxCell>
        <mxCell id="DglnRcJ5g5Zxvro3vOS6-39" value="" style="endArrow=classic;html=1;rounded=0;" edge="1" parent="1">
          <mxGeometry width="50" height="50" relative="1" as="geometry">
            <mxPoint x="-360" y="440" as="sourcePoint" />
            <mxPoint x="-360" y="400" as="targetPoint" />
          </mxGeometry>
        </mxCell>
        <mxCell id="DglnRcJ5g5Zxvro3vOS6-40" value="query_that_results_in_table_of_person_IDs&lt;br&gt;_from_table_of_distinct_combinations_of_person_ID_entry_date_and_concept_ID&lt;br&gt;_from_table_of_events_where_concept_IDs_correspond_to_opioids" style="text;html=1;strokeColor=none;fillColor=none;align=center;verticalAlign=middle;whiteSpace=wrap;rounded=0;" vertex="1" parent="1">
          <mxGeometry x="-770" y="440" width="450" height="50" as="geometry" />
        </mxCell>
      </root>
    </mxGraphModel>
  </diagram>
</mxfile>
